<svg width="14" height="14" viewBox="0 0 14 14" fill="none" xmlns="http://www.w3.org/2000/svg">
<g id="&#240;&#159;&#166;&#134; icon &#34;calendar dates&#34;">
<path id="Vector" fill-rule="evenodd" clip-rule="evenodd" d="M12.6 4.2V2.1H11.2V2.8H9.8V2.1H4.2V2.8H2.8V2.1H1.4V4.2H12.6ZM12.6 5.6H1.4V12.6H12.6V5.6ZM11.2 0.7H12.6C13.3732 0.7 14 1.3268 14 2.1V12.6C14 13.3732 13.3732 14 12.6 14H1.4C0.626801 14 0 13.3732 0 12.6V2.1C0 1.3268 0.626801 0.7 1.4 0.7H2.8V0H4.2V0.7H9.8V0H11.2V0.7ZM4.9 8.4H3.5V7H4.9V8.4ZM7.7 8.4H6.3V7H7.7V8.4ZM10.5 8.4H9.1V7H10.5V8.4ZM4.9 11.2H3.5V9.8H4.9V11.2ZM7.7 11.2H6.3V9.8H7.7V11.2Z" fill="#A4A4A4"/>
</g>
</svg>
