<svg width="30" height="29" viewBox="0 0 30 29" fill="none" xmlns="http://www.w3.org/2000/svg">
<g id="link">
<mask id="mask0_76_22" style="mask-type:alpha" maskUnits="userSpaceOnUse" x="0" y="0" width="30" height="29">
<rect id="Bounding box" width="29.1214" height="29" fill="#D9D9D9"/>
</mask>
<g mask="url(#mask0_76_22)">
<path id="link_2" d="M13.3473 20.5417H8.49372C6.81519 20.5417 5.3844 19.9526 4.20134 18.7745C3.01829 17.5963 2.42676 16.1715 2.42676 14.5C2.42676 12.8285 3.01829 11.4036 4.20134 10.2255C5.3844 9.04739 6.81519 8.45833 8.49372 8.45833H13.3473V10.875H8.49372C7.48256 10.875 6.62307 11.2274 5.91526 11.9323C5.20745 12.6371 4.85354 13.4931 4.85354 14.5C4.85354 15.5069 5.20745 16.3628 5.91526 17.0677C6.62307 17.7726 7.48256 18.125 8.49372 18.125H13.3473V20.5417ZM9.70711 15.7083V13.2917H19.4143V15.7083H9.70711ZM15.7741 20.5417V18.125H20.6276C21.6388 18.125 22.4983 17.7726 23.2061 17.0677C23.9139 16.3628 24.2678 15.5069 24.2678 14.5C24.2678 13.4931 23.9139 12.6371 23.2061 11.9323C22.4983 11.2274 21.6388 10.875 20.6276 10.875H15.7741V8.45833H20.6276C22.3062 8.45833 23.737 9.04739 24.92 10.2255C26.1031 11.4036 26.6946 12.8285 26.6946 14.5C26.6946 16.1715 26.1031 17.5963 24.92 18.7745C23.737 19.9526 22.3062 20.5417 20.6276 20.5417H15.7741Z" fill="#BFD2FF"/>
</g>
</g>
</svg>
