<?xml version="1.0" encoding="UTF-8" standalone="no" ?>
<!DOCTYPE svg PUBLIC "-//W3C//DTD SVG 1.1//EN" "http://www.w3.org/Graphics/SVG/1.1/DTD/svg11.dtd">
<svg xmlns="http://www.w3.org/2000/svg" xmlns:xlink="http://www.w3.org/1999/xlink" version="1.1" width="512" height="512" viewBox="0 0 512 512" xml:space="preserve">
<desc>Created with Fabric.js 5.2.4</desc>
<defs>
</defs>
<rect x="0" y="0" width="100%" height="100%" fill="transparent"></rect>
<g transform="matrix(1 0 0 1 256 256)" id="e92fe731-3ba8-4d83-8c16-442b4f0dbbc9"  >
<rect style="stroke: none; stroke-width: 1; stroke-dasharray: none; stroke-linecap: butt; stroke-dashoffset: 0; stroke-linejoin: miter; stroke-miterlimit: 4; fill: rgb(255,255,255); fill-rule: nonzero; opacity: 1; visibility: hidden;" vector-effect="non-scaling-stroke"  x="-256" y="-256" rx="0" ry="0" width="512" height="512" />
</g>
<g transform="matrix(0 0 0 0 0 0)" id="fa8100c4-3355-4eee-8930-8ae18aeae469"  >
</g>
<g transform="matrix(1.04 0 0 0.99 256 256)"  >
<path style="stroke: none; stroke-width: 1; stroke-dasharray: none; stroke-linecap: butt; stroke-dashoffset: 0; stroke-linejoin: miter; stroke-miterlimit: 4; fill: rgb(255,255,255); fill-rule: nonzero; opacity: 1;" vector-effect="non-scaling-stroke"  transform=" translate(-249.52, -253.57)" d="M 225.468658 501 C 224.25975 500.10614 223.694931 498.910004 222.753113 498.363434 C 206.867157 489.143524 197.761078 475.513245 194.919464 457.320618 C 192.581879 442.354767 196.176666 429.004669 205.109665 417.201416 C 209.503708 411.395538 215.1138 406.500092 220.253326 401.270996 C 225.392838 396.041931 230.631821 390.910645 236.147629 385.417389 C 219.725342 369.063385 203.333069 352.801697 187.037155 336.444 C 184.584198 333.98175 183.185913 335.26825 181.360565 337.105499 C 169.02771 349.518524 156.567032 361.805084 144.282272 374.265198 C 136.441376 382.217957 126.529083 385.803986 116.002831 387.942383 C 102.151031 390.756317 89.351646 387.265808 77.565178 380.046814 C 64.158104 371.835297 56.15472 359.649506 53.024662 344.318024 C 49.842339 328.73056 52.960239 314.369141 61.986412 301.290619 C 62.905827 299.958405 63.900627 298.645447 65.04039 297.503113 C 78.691734 283.820892 92.377075 270.172577 106.311211 256.258057 C 105.409966 255.198593 104.654144 254.176727 103.766273 253.286575 C 92.467918 241.959091 81.225655 230.574188 69.818352 219.357224 C 56.727924 206.485229 50.396576 190.971222 52.087109 172.695572 C 53.932751 152.743164 66.121109 134.412781 86.00235 126.969788 C 109.844994 118.043747 130.562531 122.904747 148.4039 140.890411 C 160.465424 153.049469 172.595444 165.140564 185.006119 177.573914 C 189.145676 173.404327 192.978363 169.514648 196.843903 165.657883 C 201.364563 161.147507 207.012115 160.577835 210.707184 164.221619 C 215.071625 168.525482 215.121613 174.084152 210.554306 178.921005 C 206.788544 182.909027 202.760895 186.64975 198.654037 190.692245 C 199.275238 191.494995 199.692963 192.173752 200.240845 192.722565 C 215.546921 208.054504 230.924896 223.31546 246.127457 238.749222 C 248.771057 241.433014 250.345963 241.311844 252.920746 238.699112 C 267.42453 223.981567 282.043732 209.376465 296.745117 194.856079 C 299.654877 191.982117 299.597321 189.93959 296.697388 187.079712 C 281.984985 172.570572 267.360168 157.970673 252.867294 143.242569 C 250.20694 140.539032 248.479996 140.556442 246.081161 143.321289 C 243.685303 146.082672 240.982208 148.584946 238.337967 151.121765 C 233.594467 155.672546 227.278351 156.430679 223.50708 152.977905 C 219.544891 149.350342 219.608765 142.482941 224.054474 137.582413 C 226.687439 134.680099 229.805817 132.19397 232.849564 129.695694 C 235.565277 127.466667 235.447372 125.750793 232.899094 123.301285 C 225.451904 116.142807 218.175949 108.802063 210.953491 101.414841 C 199.795227 90.002022 193.535004 76.162117 194.175705 60.292709 C 195.251511 33.646633 212.911362 11.035995 241.222366 6.866072 C 261.383606 3.896527 277.8078 10.184267 291.14917 24.834566 C 298.292694 32.678936 302.34967 42.268486 304.078217 52.935471 C 307.328857 72.995483 300.146057 89.175842 286.37912 103.102234 C 278.646942 110.92395 270.813477 118.645515 262.951233 126.486435 C 273.829315 137.350952 284.587921 148.1978 295.469513 158.91983 C 300.646973 164.021362 306.207214 168.739105 311.300659 173.919189 C 313.789795 176.450668 315.302673 176.33847 317.726501 173.867355 C 328.928741 162.44664 340.41452 151.303558 351.589142 139.8564 C 365.007904 126.110321 381.503937 120.628372 400.0896 123.181236 C 422.699951 126.286888 441.797546 142.994537 446.039124 167.380524 C 449.57663 187.718353 443.899597 204.930313 429.214996 219.276794 C 417.937164 230.294937 406.604431 241.256973 395.355469 252.304428 C 394.357147 253.284821 393.797974 254.712402 392.668304 256.518188 C 399.165161 262.624756 405.924835 268.672821 412.336945 275.069275 C 425.357544 288.058105 440.452484 299.60437 445.236572 318.731537 C 450.105591 338.198273 446.115906 355.706177 432.673706 370.808228 C 421.626984 383.218994 407.202118 388.962067 391.120636 388.728668 C 377.178009 388.526245 364.207336 383.776154 353.948151 373.464508 C 341.959198 361.414185 329.866089 349.466797 317.953705 337.341614 C 315.456055 334.799377 313.701385 334.238678 311.167786 337.224884 C 308.589874 340.263306 305.701843 343.072937 302.725891 345.732361 C 295.968658 351.770905 287.048126 350.067932 285.314819 341.464508 C 284.257385 336.215729 287.894135 332.346741 291.547211 329.008575 C 294.575958 326.240906 297.783356 323.668762 301.244141 320.727356 C 292.33847 311.827423 283.69162 303.184204 275.042572 294.543182 C 267.49765 287.00531 259.893097 279.525787 252.44162 271.896698 C 250.422424 269.829376 249.026642 269.374146 246.767044 271.655548 C 231.757156 286.810547 216.622208 301.841644 201.576859 316.96167 C 200.465027 318.07901 199.736023 319.577271 198.575363 321.267975 C 215.715225 337.923676 232.743439 354.470886 250.309753 371.540985 C 254.144257 367.591644 257.906616 363.652161 261.740845 359.783875 C 266.551758 354.930237 271.015381 354.959167 275.712555 359.106384 C 279.70108 362.62793 279.119446 369.483337 275.32077 373.194183 C 272.222748 376.22049 269.332367 379.475433 266.086456 382.329315 C 263.380524 384.708435 263.686646 386.342102 266.151733 388.741333 C 275.372498 397.715698 284.746216 406.574219 293.383514 416.092377 C 299.28125 422.591553 302.182404 430.976562 303.960083 439.559662 C 306.199799 450.373993 304.808136 460.82016 300.542358 471.007446 C 295.382294 483.330353 286.957672 492.583221 275.286346 498.972229 C 274.608765 499.34317 274.039917 499.912842 273.710236 500.695007 C 257.979095 501 241.958206 501 225.468658 501 M 361.002289 157.496674 C 349.856415 168.630768 338.710541 179.764877 328.01947 190.444641 C 345.42099 207.840408 362.354095 224.767929 379.646576 242.054703 C 382.779358 238.538406 385.99585 234.612625 389.540558 231.009781 C 399.380615 221.008377 409.408875 211.192245 419.258453 201.200012 C 424.27594 196.109848 427.124268 189.614655 427.846588 182.752884 C 429.281677 169.120239 424.830963 157.523865 413.557495 149.082443 C 404.752289 142.489197 395.075134 140.750244 384.209656 142.823318 C 374.601715 144.656464 367.966339 150.5121 361.002289 157.496674 M 73.929924 191.452255 C 76.609703 195.455719 78.777023 199.951126 82.062294 203.373306 C 93.358635 215.140488 105.149612 226.431641 116.514366 238.135056 C 119.491623 241.20105 121.266479 241.593292 124.369408 238.265274 C 134.201218 227.72023 144.333939 217.45488 154.395004 207.124908 C 158.690414 202.714645 163.370438 198.639404 167.284225 193.92131 C 168.450897 192.514877 168.646805 188.419189 167.531906 187.291885 C 154.587189 174.202835 142.050949 160.546463 127.913017 148.844833 C 112.448318 136.045059 88.054245 140.35936 76.632965 158.850266 C 70.375099 168.981644 69.144951 179.663086 73.929924 191.452255 M 427.696228 339.829224 C 429.34552 328.415161 426.840179 317.955627 418.904968 309.588104 C 407.116028 297.156891 394.7034 285.319092 382.681122 273.105743 C 379.963654 270.345093 378.004517 270.39447 375.301117 273.123779 C 359.610748 288.964691 343.799255 304.685669 328.019501 320.456451 C 340.886993 333.339386 353.630524 346.24588 366.54538 358.978577 C 375.709076 368.013062 387.269531 371.226013 399.382355 368.579102 C 414.15097 365.351898 424.059052 355.950531 427.696228 339.829224 M 71.019905 338.973785 C 73.669914 347.879547 77.609268 355.778809 85.187004 361.851685 C 96.486977 370.907715 115.954193 372.619781 127.203629 362.882294 C 142.535721 349.610931 156.600021 334.874939 170.698135 321.259247 C 153.367783 303.919006 136.559052 287.100647 119.47789 270.009735 C 108.094269 281.397552 96.664688 293.242218 84.770866 304.600739 C 75.099785 313.836548 69.826599 324.541168 71.019905 338.973785 M 315.894226 305.634949 C 332.41452 289.197113 348.934814 272.759277 365.269775 256.505859 C 347.865631 239.063629 330.952087 222.113037 313.854248 204.977783 C 313.524384 205.195938 312.924377 205.467422 312.484955 205.901443 C 295.880768 222.301361 279.291351 238.716248 262.616272 255.211929 C 279.082123 271.64978 295.099487 287.673706 311.188446 303.625427 C 312.260376 304.688202 313.875793 305.20282 315.894226 305.634949 M 177.999878 299.499664 C 180.066864 301.667236 182.13385 303.834808 184.320679 306.128052 C 185.950989 304.886536 187.477493 303.972717 188.700974 302.754547 C 203.45018 288.069122 218.099899 273.283264 232.923126 258.673279 C 235.467194 256.165802 235.297333 254.675186 232.85614 252.264908 C 218.046341 237.642838 203.332703 222.922348 188.699219 208.123718 C 185.993774 205.387726 184.039429 205.358643 181.31514 208.109772 C 165.621216 223.958313 149.802429 239.683212 133.980164 255.495789 C 148.530304 270.040741 163.014938 284.520172 177.999878 299.499664 M 252.262451 486 C 263.389282 484.640137 272.564453 479.832062 278.979218 470.46347 C 287.740814 457.667328 288.784119 441.914062 278.822235 429.648071 C 270.600098 419.5242 260.891479 410.595673 251.627396 401.352142 C 250.878464 400.604858 247.854645 400.876923 246.930527 401.762878 C 238.639587 409.71109 230.304718 417.64798 222.538651 426.09906 C 215.519714 433.737122 213.039597 442.8927 213.814133 453.540009 C 215.147903 471.874573 233.268768 487.277252 252.262451 486 M 214.024002 69.071068 C 216.352234 76.833542 220.146881 83.546257 226.379883 89.03849 C 232.492172 94.424347 238.071686 100.427544 243.730789 106.308228 C 245.75351 108.410164 247.324966 110.94635 249.179108 113.385216 C 257.975616 104.193893 265.143219 96.079201 272.981171 88.674072 C 282.658478 79.531204 287.113037 68.9272 285.047729 55.603981 C 283.752106 47.245739 280.068085 39.885475 273.865601 34.692883 C 265.432922 27.633245 255.656342 23.612877 243.908661 25.869139 C 232.33667 28.091658 223.868271 34.013905 217.995956 44.016651 C 213.561371 51.5704 213.103943 59.775616 214.024002 69.071068 z" stroke-linecap="round" />
</g>
<g transform="matrix(1.04 0 0 0.99 399.73 184.1)"  >
<path style="stroke: none; stroke-width: 1; stroke-dasharray: none; stroke-linecap: butt; stroke-dashoffset: 0; stroke-linejoin: miter; stroke-miterlimit: 4; fill: rgb(255,255,255); fill-rule: nonzero; opacity: 1;" vector-effect="non-scaling-stroke"  transform=" translate(-385.42, -179.6)" d="M 392.804108 185.682922 C 389.20993 190.231033 382.801575 189.675873 380.131805 187.563797 C 376.72168 184.865982 374.74057 181.452332 376.599792 176.876068 C 379.023285 170.910965 384.010437 168.568756 389.154114 171.012665 C 395.262573 173.914948 396.6586 179.037384 392.804108 185.682922 z" stroke-linecap="round" />
</g>
<g transform="matrix(1.04 0 0 0.99 112.79 184.12)"  >
<path style="stroke: none; stroke-width: 1; stroke-dasharray: none; stroke-linecap: butt; stroke-dashoffset: 0; stroke-linejoin: miter; stroke-miterlimit: 4; fill: rgb(255,255,255); fill-rule: nonzero; opacity: 1;" vector-effect="non-scaling-stroke"  transform=" translate(-110.89, -179.63)" d="M 115.614655 187.87619 C 107.838135 190.432266 103.947998 188.759171 102.014252 182.18924 C 100.369827 176.602234 103.341454 172.246857 108.795914 170.640076 C 113.069618 169.381104 116.969696 171.110977 119.110672 175.425522 C 121.341049 179.920227 120.193954 184.320801 115.614655 187.87619 z" stroke-linecap="round" />
</g>
<g transform="matrix(1.04 0 0 0.99 399.89 330.74)"  >
<path style="stroke: none; stroke-width: 1; stroke-dasharray: none; stroke-linecap: butt; stroke-dashoffset: 0; stroke-linejoin: miter; stroke-miterlimit: 4; fill: rgb(255,255,255); fill-rule: nonzero; opacity: 1;" vector-effect="non-scaling-stroke"  transform=" translate(-385.57, -326.3)" d="M 393.325439 320.758484 C 396.506592 326.203064 395.337311 331.417755 390.697693 334.029297 C 385.377411 337.023956 380.624146 336.25769 377.999512 331.982178 C 374.54599 326.356476 375.690002 320.818665 380.977875 317.564087 C 383.948517 315.735748 389.74292 317.123108 393.325439 320.758484 z" stroke-linecap="round" />
</g>
<g transform="matrix(1.04 0 0 0.99 112.38 330.96)"  >
<path style="stroke: none; stroke-width: 1; stroke-dasharray: none; stroke-linecap: butt; stroke-dashoffset: 0; stroke-linejoin: miter; stroke-miterlimit: 4; fill: rgb(255,255,255); fill-rule: nonzero; opacity: 1;" vector-effect="non-scaling-stroke"  transform=" translate(-110.51, -326.52)" d="M 119.999977 327.737549 C 119.085274 333.06366 114.655083 336.509338 109.924202 335.99884 C 105.79512 335.553253 100.846642 330.169037 101.011223 326.300995 C 101.260635 320.439606 105.499847 316.802734 111.852608 317.000061 C 116.494049 317.144226 119.885132 320.811432 119.998482 325.813477 C 120.009804 326.313049 120 326.81311 119.999977 327.737549 z" stroke-linecap="round" />
</g>
<g transform="matrix(1.04 0 0 0.99 325.78 260.13)"  >
<path style="stroke: none; stroke-width: 1; stroke-dasharray: none; stroke-linecap: butt; stroke-dashoffset: 0; stroke-linejoin: miter; stroke-miterlimit: 4; fill: rgb(255,255,255); fill-rule: nonzero; opacity: 1;" vector-effect="non-scaling-stroke"  transform=" translate(-314.67, -255.66)" d="M 321.746033 261.645386 C 314.537842 266.3396 310.800018 266.44519 306.820526 260.979797 C 305.241516 258.811188 305.157227 254.856659 305.732452 251.983521 C 306.557831 247.861145 310.437714 245.824615 314.216766 246.239487 C 316.970612 246.541794 319.94696 248.591446 321.994629 250.676651 C 325.151764 253.891678 323.995911 257.75882 321.746033 261.645386 z" stroke-linecap="round" />
</g>
<g transform="matrix(1.03 0 0 0.99 179.17 260.84)"  >
<path style="stroke: none; stroke-width: 1; stroke-dasharray: none; stroke-linecap: butt; stroke-dashoffset: 0; stroke-linejoin: miter; stroke-miterlimit: 4; fill: rgb(255,255,255); fill-rule: nonzero; opacity: 1;" vector-effect="non-scaling-stroke"  transform=" translate(-184.64, -255.69)" d="M 175.020203 255.926331 C 177.855789 247.658066 181.700882 244.935623 187.345413 246.793198 C 192.772324 248.579132 195.545456 252.305527 193.692627 258.02887 C 192.767273 260.887146 188.971237 263.830505 185.884293 264.744141 C 180.870911 266.227936 177.719086 263.466095 175.96257 258.030151 C 175.766739 257.424164 175.349838 256.889679 175.020203 255.926331 z" stroke-linecap="round" />
</g>
<g transform="matrix(1.04 0 0 0.99 257.8 454.2)"  >
<path style="stroke: none; stroke-width: 1; stroke-dasharray: none; stroke-linecap: butt; stroke-dashoffset: 0; stroke-linejoin: miter; stroke-miterlimit: 4; fill: rgb(255,255,255); fill-rule: nonzero; opacity: 1;" vector-effect="non-scaling-stroke"  transform=" translate(-249.62, -449.79)" d="M 240.000854 449.161041 C 240.979202 443.800446 244.391556 440.476898 248.932617 440.35141 C 251.765594 440.273163 255.295212 442.82254 257.414337 445.179688 C 260.095917 448.162506 259.736755 452.01947 257.089691 455.397034 C 254.314255 458.938354 250.475372 460.007202 246.582916 458.706757 C 242.593628 457.373993 239.76088 454.367432 240.000854 449.161041 z" stroke-linecap="round" />
</g>
<g transform="matrix(1.04 0 0 0.99 257.68 66.08)"  >
<path style="stroke: none; stroke-width: 1; stroke-dasharray: none; stroke-linecap: butt; stroke-dashoffset: 0; stroke-linejoin: miter; stroke-miterlimit: 4; fill: rgb(255,255,255); fill-rule: nonzero; opacity: 1;" vector-effect="non-scaling-stroke"  transform=" translate(-249.52, -61.54)" d="M 257.382263 67.111969 C 254.200302 71.070282 250.265656 72.063019 246.157669 70.523026 C 242.565155 69.17627 240.076782 66.427589 239.960739 62.076996 C 239.842712 57.651802 241.619492 54.602791 245.66803 52.835773 C 249.441071 51.189007 252.885773 51.59557 255.939804 54.434368 C 259.873688 58.091022 259.851654 62.323147 257.382263 67.111969 z" stroke-linecap="round" />
</g>
</svg>