<svg width="14" height="18" viewBox="0 0 14 18" fill="none" xmlns="http://www.w3.org/2000/svg">
<g id="&#240;&#159;&#166;&#134; icon &#34;pin&#34;">
<path id="Vector" fill-rule="evenodd" clip-rule="evenodd" d="M7.51157 16.9192L7 17.3659L6.48843 16.9192C2.18657 13.1629 0 9.88304 0 7C0 2.91718 3.1866 0 7 0C10.8134 0 14 2.91718 14 7C14 9.88304 11.8134 13.1629 7.51157 16.9192ZM1.55556 7C1.55556 9.21607 3.34959 12.0039 7 15.2938C10.6504 12.0039 12.4444 9.21607 12.4444 7C12.4444 3.80847 9.98347 1.55556 7 1.55556C4.01653 1.55556 1.55556 3.80847 1.55556 7ZM7 3.11111C9.14777 3.11111 10.8889 4.85223 10.8889 7C10.8889 9.14777 9.14777 10.8889 7 10.8889C4.85223 10.8889 3.11111 9.14777 3.11111 7C3.11111 4.85223 4.85223 3.11111 7 3.11111ZM7 4.66667C5.71134 4.66667 4.66667 5.71134 4.66667 7C4.66667 8.28866 5.71134 9.33333 7 9.33333C8.28866 9.33333 9.33333 8.28866 9.33333 7C9.33333 5.71134 8.28866 4.66667 7 4.66667Z" fill="#D9D9D9"/>
</g>
</svg>
